<?xml version="1.0" standalone="no"?>
<!DOCTYPE svg PUBLIC "-//W3C//DTD SVG 20010904//EN"
 "http://www.w3.org/TR/2001/REC-SVG-20010904/DTD/svg10.dtd">
<svg version="1.0" xmlns="http://www.w3.org/2000/svg"
 width="355.000000pt" height="218.000000pt" viewBox="0 0 355.000000 218.000000"
 preserveAspectRatio="xMidYMid meet">

<g transform="translate(0.000000,218.000000) scale(0.100000,-0.100000)"
fill="#000000" stroke="none">
<path d="M2864 2160 c-35 -14 -64 -59 -64 -99 0 -78 72 -136 141 -112 28 10
46 2 261 -117 127 -70 233 -132 235 -139 7 -19 -33 -51 -79 -64 -41 -11 -175
-7 -255 7 -29 5 -41 -3 -167 -122 -95 -89 -136 -134 -136 -149 0 -13 16 -57
35 -99 25 -54 35 -92 35 -125 0 -59 26 -96 76 -110 78 -22 144 31 144 115 0
53 -53 104 -108 104 -38 0 -40 2 -60 49 l-20 49 97 95 96 96 125 -6 c136 -6
185 2 241 40 43 29 79 92 79 139 0 45 12 37 -292 203 -209 114 -217 119 -223
153 -9 51 -63 102 -106 101 -19 0 -44 -4 -55 -9z"/>
<path d="M2244 2062 c-17 -11 -36 -34 -44 -51 -11 -27 -30 -40 -116 -81 -160
-75 -241 -137 -439 -335 -193 -193 -262 -247 -417 -320 -117 -55 -242 -92
-383 -112 -225 -32 -625 7 -625 61 0 8 -14 26 -31 40 -45 38 -110 37 -149 -3
-16 -16 -32 -40 -36 -55 -9 -38 3 -74 36 -107 23 -24 37 -29 74 -29 35 0 58
-8 103 -37 129 -83 328 -157 508 -189 148 -27 429 -24 589 5 137 24 287 66
422 117 73 27 98 32 113 24 48 -25 120 0 147 52 31 61 -2 135 -71 158 -58 19
-129 -25 -141 -86 -6 -31 -12 -35 -88 -64 -120 -46 -269 -86 -413 -110 -112
-19 -153 -21 -323 -17 -246 7 -395 39 -565 123 -59 28 -64 33 -35 29 363 -49
648 -11 925 124 180 88 268 158 487 387 110 116 197 182 326 246 l102 52 50
-18 c53 -19 100 -15 121 10 6 8 17 14 24 14 28 0 193 -53 253 -80 61 -29 62
-30 62 -69 0 -31 7 -49 29 -73 26 -29 35 -33 81 -33 46 0 55 4 81 33 20 22 29
43 29 67 0 77 -41 119 -119 120 -31 1 -71 13 -123 38 -42 20 -117 48 -167 61
-101 27 -111 32 -111 50 0 7 -13 25 -29 40 -38 37 -95 44 -137 18z"/>
<path d="M2567 1609 c-10 -6 -27 -24 -37 -41 l-18 -31 -89 2 c-48 1 -171 -3
-272 -8 l-184 -10 -29 30 c-25 24 -38 29 -78 29 -39 0 -54 -5 -79 -29 -25 -23
-31 -37 -31 -70 0 -78 40 -121 114 -121 27 0 46 9 76 36 l40 37 278 5 c333 6
317 12 278 -105 -40 -123 -50 -196 -50 -373 -1 -154 -2 -167 -23 -193 -30 -39
-37 -78 -19 -120 18 -44 61 -68 120 -65 40 1 56 -6 158 -74 155 -103 178 -132
60 -73 -83 41 -236 98 -339 125 -38 9 -43 14 -43 40 0 16 -11 42 -25 58 -23
27 -25 38 -25 124 0 97 -15 174 -51 265 l-21 53 26 31 c50 59 28 154 -43 182
-50 21 -100 8 -135 -34 -43 -51 -29 -135 28 -173 57 -37 106 -184 106 -319 l0
-78 -40 -38 c-35 -33 -40 -44 -40 -82 0 -83 38 -112 155 -114 138 -3 399 -103
550 -210 77 -54 155 -138 155 -166 0 -11 15 -36 34 -55 29 -29 41 -34 79 -34
55 0 92 27 106 76 19 70 -30 144 -97 144 -11 0 -37 25 -64 62 -84 113 -247
255 -392 340 -40 24 -46 32 -46 60 -1 40 -16 70 -52 98 l-28 21 0 149 c0 238
39 392 119 468 35 34 41 45 41 81 0 36 -6 49 -34 77 -28 28 -41 34 -77 34 -24
0 -52 -5 -62 -11z"/>
</g>
</svg>
